<?xml version="1.0" encoding="UTF-8"?>
<svg version="1.1" viewBox="0 0 1600 1600" width="1280" height="1280" xmlns="http://www.w3.org/2000/svg">
<path transform="translate(0)" d="m0 0h1600v1600h-1600z" fill="#DCEBFB"/>
<path transform="translate(949,587)" d="m0 0h29l21 4 15 5 16 8 14 9 14 12 9 11 7 11 6 12 5 16 4 23 1 11 1 27 11 25 16 41 15 40 7 18 2 8 1 22v23l-4 16-6 11-8 13-3 11v10l6 1 16 8 10 8 11 11 9 11 4 5v2l3 1 9 12 5 6 2 1-1-6 2-5 1-1 10 1 7 8 6 20 5 4 3 3-1-7v-13l3-5h6l4 6 2 15v18l6 6 1-3-1-2v-19l3-7 2-3h7l2 2 3 10v13l-3 16-1 7 3 4v2h2l-1-3v-14l4-8 2-2h6l4 5 4 11 1 5v20l-1 7v8l2 2 1-16 3-9 4-5 7-4h7l9 4 5 4v2l6 1v-3l-6-2-10-8-7-8-3-6v-5l4-3h6l8 5 8 7 5 7v2h2l-7-28-13-8-8-8-4-7v-7l8-2 8 4-1-6-8-17-9-3-13-4-8-4-7-7v-5l3-2h8l18 9-7-8-15-10-5-5-3-5 1-5 2-2h8l2 1v-12l5-5 6 1 5 5 2 3 1 27 4 8v2h2v-12l4-10 4-3 5 1 2 4v13l-4 12-3 7 1 7 2 4 2 1v-10l3-8 3-6 2-3h2v-2l4-2 5 1 2 2v12l-2 7-4 10-8 12-1 1 1 7 1 2 3-11 6-9 5-3 4 1 2 1 2 8v12l-4 13 6-1 10 1v-4l-2-7-1-12 2-8 3-3 7 1 6 8 3 10 1 6 3-8-1-4-11-19-3-9v-14l1-2h7l5 4 5 11 4 16 4-8-1-7-5-11-1-5v-15l3-4 5 2 4 5 2 6v12l3-3 4-8v-21l3-9 3-3 9-1 3 5v11l3-1h7l3 3-1 6-7 8-14 9-7 7-1 4 10-7 10-4 7 1 2 1-1 6-8 7-9 4-16 4h-3l-2 6-8 18v3l8-5h7l2 2v6l-6 9-8 7-11 7-5 21-1 8 8-11 8-7 5-3h9l2 2-1 8-7 9-8 7-10 6 4 2 8-7 5-3 9-1 4 2 1 7-6 13 4-1 2 1 3 12 4 20 7 3 2 1 4-8-7-16-3-10v-16l3-5h6l6 7 3 12 1 13 2-3-1-13v-25l4-12 4-6h7l4 6 1 4v17l4-5 1-4-4-16v-19l4-9 5-2 5 5 3 9v11l-2 11 5-5 3-2v-26l4-11 2-2h5l3 4 1 3-1 13-1 6 7-7h2l2-10 4-12 5-6 4-2h7l3 3v9l-2 5 9 3 1 1v6l-5 5-11 4-9 2-12 6-1 2 9-3 12-1 7 3 1 1v5l-6 4-7 2h-29l-8 8-9 11h3 10l4 4-2 6-8 6-9 4-15 4-15 25 14-9 7-3 9-1 5 2 2 2-1 5-4 5-10 6-16 5-15 2-2 6-6 12 10-9 13-8 12-4h9l5 3 1 1v6l-9 10-11 7-17 6-6 1-1 5-4 6 28-14 3-1h8l2 2v6l-4 6-8 7-19 8-25 8-11 3-8 17 17-10 28-14 14-6h14l5 3 1 2v6l-9 8-16 8-24 8-16 4-19 1-4 10 1 1 53-15 15-3 9 1 3 3v6l-7 8-8 5-18 4-6 1 18 1 10 5 5 6 3 7 1 8-2 18-6 17-9 14-3 4h-2l-2 4-9 8-14 8-4 2h-3l4 6-1 6-4 4h-81l-4-3-1-6 2-5-5-1-14-7-13-10-11-13-9-16-4-14-1-6v-17l2-5-13 1-12 1-11-14v-2h-2l-18-24-12-15-9-12-10-13-7-9-10-13-11-14v-2h-2l-4 36-4 25-6 28-7 23-8 26-1 4-15 4-78 17-29 6h-5l-1-191v-131l-2-10-6-4h-8l5 6 1 3v376l-475 1-2 1h-321l-4-4v-45l2-5 284-1 3-3v-45l-4-3-14-1-2-1v-268l3-7 5-5 210-1h74l3-1 9-11 9-10 16-11 8-4 11-4 17-2 7-4 3-4h2l2-4 6-7 5-9 1-4v-8l-5-10-10-9-5-5-4-6-3-10v-13l3-12 6-12 2 1 6 18 8 15 10 13 7 7 14 9 14 6 18 4 1 19 5-1h16l4 1h23l15-4 4-2 8-2 12-7-1-7-4-18v-15l2-9 6-21 8-14 12-16 6-12 2-6-8 5-8 2-11-1-5-3v-2l8-4 7-8 3-9v-8l-5-14-8-16-4-13-1-6v-26l1-9-10 11-14 11-17 9-14 5-3-1 11-14 7-14 4-12v-3l-11 8-14 9-13 6-16 5-8 1 6-11 4-10 1-10-12 13-11 10-13 10-15 10-18 10-9 3-2 56-1 17-2 6-4 2h-7l-6-3-4-4 8-2 5-5 3-7-1-10-7-17-5-14-3-16v-18l3-17 2-5-9-2-2-2 12-3 9-6 6-7 8-14 9-19 10-15 11-12 4-5 11-9 15-10 16-8 15-5 14-3z" fill="#FDB701"/>
<path transform="translate(99,928)" d="m0 0 2 3 15 102 26 175 12 81v5l110-1-10-6-6-9-2-7v-136l2-3h124l2 1v20h10l13 3 15 8 10 9 9 14 4 12 1 7v13l-4 16-3 6-8 11-10 9-12 7-14 3h-11l-1 7-6 9-7 5-3 1h104l14 1 5 4v45l-4 4-283 1-2 4v45l3 3h321l2-1h475l-1-376-3-6-5-4h11l6 4 2 3 1 8v322l24-5 56-12 45-10h2l1-8 9-28 5-17 7-33 4-26 3-32 1 2h2l10 13 9 12 7 9 20 26 14 18 10 13 7 9v2h2l11 15 12-1 6-1h8l-2 6v17l4 17 8 16 8 10 6 7 14 10 16 7-1 8 1 3 3 2h85v-2h180v203h-1599v-202l1-1h50l1-6 3-10 6-8 9-8 10-4 4-1h33v-29l5-1-14-93-18-122-17-116-9-61v-5l10 4 3 16 19 129 18 121 14 95 4 27h15l-3-23-19-128-18-122-16-108-1-9z" fill="#AABAF9"/>
<path transform="translate(428,195)" d="m0 0h581l6 5 1 3v352h-484l-7-7-9-4-7-1-12 3-6 4-5 5h-65v-353l5-6z" fill="#0A49FC"/>
<path transform="translate(949,587)" d="m0 0h29l21 4 15 5 16 8 14 9 14 12 9 11 7 11 6 12 5 16 4 23 1 11 1 27 11 25 16 41 15 40 7 18 2 8 1 22v23l-4 16-6 11-8 13-3 11v10l6 1 16 8 10 8 11 11 9 11 4 5v2l3 1 9 12 5 6 2 1-1-6 2-5 1-1 10 1 7 8 6 20 5 4 3 3-1-7v-13l3-5h6l4 6 2 15v18l6 6 1-3-1-2v-19l3-7 2-3h7l2 2 3 10v13l-3 16-1 7 3 4v2h2l-1-3v-14l4-8 2-2h6l4 5 4 11 1 5v20l-1 7v8l2 2 1-16 3-9 4-5 7-4h7l9 4 5 4v2l6 1v-3l-6-2-10-8-7-8-3-6v-5l4-3h6l8 5 8 7 5 7v2h2l-7-28-13-8-8-8-4-7v-7l8-2 8 4-1-6-8-17-9-3-13-4-8-4-7-7v-5l3-2h8l18 9-7-8-15-10-5-5-3-5 1-5 2-2h8l2 1v-12l5-5 6 1 5 5 2 3 1 27 4 8v2h2v-12l4-10 4-3 5 1 2 4v13l-4 12-3 7 1 7 2 4 2 1v-10l3-8 3-6 2-3h2v-2l4-2 5 1 2 2v12l-2 7-4 10-8 12-1 1 1 7 1 2 3-11 6-9 5-3 4 1 2 1 2 8v12l-4 13 6-1 10 1v-4l-2-7-1-12 2-8 3-3 7 1 6 8 3 10 1 6 3-8-1-4-11-19-3-9v-14l1-2h7l5 4 5 11 4 16 4-8-1-7-5-11-1-5v-15l3-4 5 2 4 5 2 6v12l3-3 4-8v-21l3-9 3-3 9-1 3 5v11l3-1h7l3 3-1 6-7 8-14 9-7 7-1 4 10-7 10-4 7 1 2 1-1 6-8 7-9 4-16 4h-3l-2 6-8 18v3l8-5h7l2 2v6l-6 9-8 7-11 7-5 21-1 8 8-11 8-7 5-3h9l2 2-1 8-7 9-8 7-10 6 4 2 8-7 5-3 9-1 4 2 1 7-6 13 4-1 2 1 3 12 4 20 7 3 2 1 4-8-7-16-3-10v-16l3-5h6l6 7 3 12 1 13 2-3-1-13v-25l4-12 4-6h7l4 6 1 4v17l4-5 1-4-4-16v-19l4-9 5-2 5 5 3 9v11l-2 11 5-5 3-2v-26l4-11 2-2h5l3 4 1 3-1 13-1 6 7-7h2l2-10 4-12 5-6 4-2h7l3 3v9l-2 5 9 3 1 1v6l-5 5-11 4-9 2-12 6-1 2 9-3 12-1 7 3 1 1v5l-6 4-7 2h-29l-8 8-9 11h3 10l4 4-2 6-8 6-9 4-15 4-15 25 14-9 7-3 9-1 5 2 2 2-1 5-4 5-10 6-16 5-15 2-2 6-6 12 10-9 13-8 12-4h9l5 3 1 1v6l-9 10-11 7-17 6-6 1-1 5-4 6 28-14 3-1h8l2 2v6l-4 6-8 7-19 8-25 8-11 3-8 17 17-10 28-14 14-6h14l5 3 1 2v6l-9 8-16 8-24 8-16 4-19 1-4 10 1 1 53-15 15-3 9 1 3 3v6l-7 8-8 5-18 4-6 1 18 1 10 5 5 6 3 7 1 8-2 18-6 17-9 14-3 4h-2l-2 4-9 8-14 8-4 2h-3l4 6-1 6-4 4h-81l-4-3-1-6 2-5-5-1-14-7-13-10-11-13-9-16-4-14-1-6v-17l2-5-13 1-12 1-11-14v-2h-2l-18-24-12-15-9-12-10-13-7-9-10-13-11-14v-2h-2l-4 36-4 25-6 28-7 23-8 26-1 4-15 4-78 17-29 6h-5l-1-191v-131l-2-10-6-4-27-1 1-3 24-16 6-5 6-10 2-6v-22l-5-20-6-21-1-6v-15l2-9 6-21 8-14 12-16 6-12 2-6-8 5-8 2-11-1-5-3v-2l8-4 7-8 3-9v-8l-5-14-8-16-4-13-1-6v-26l1-9-10 11-14 11-17 9-14 5-3-1 11-14 7-14 4-12v-3l-11 8-14 9-13 6-16 5-8 1 6-11 4-10 1-10-12 13-11 10-13 10-15 10-18 10-9 3-2 56-1 17-2 6-4 2h-7l-6-3-4-4 8-2 5-5 3-7-1-10-7-17-5-14-3-16v-18l3-17 2-5-9-2-2-2 12-3 9-6 6-7 8-14 9-19 10-15 11-12 4-5 11-9 15-10 16-8 15-5 14-3z" fill="#FD5F17"/>
<path transform="translate(1,1498)" d="m0 0 1599 1v101h-1599z" fill="#8EA9FD"/>
<path transform="translate(1135,162)" d="m0 0h361v362h-361z" fill="#FDFDFD"/>
<path transform="translate(468,1014)" d="m0 0h6l5 7 5 12 9 17 9 16 9 15 9 14 12 19 10 14 8 12 7 9v3h2l7 9v2h2l3 4v2l3 1 6 8 9 11 5 5 8 9 3 2v2h2l1 4h2l7 8 4 3v2l4 2 1 3 4 2 10 9 5 5 14 12 7 5v2l4 2 13 10 8 5v2l4 2 9 6 7 5 11 6 9 6 5 4 22 12 10 6 10 4 14 7 11 5 8 3 11 5 11 4 10 3 6 3 29 9 9 3 19 4 9 3 35 7 20 3 15 3 1 2-18 1-451 1-2 1h-321l-4-4v-45l2-5 284-1 3-3v-45l-4-3-14-1-2-1v-268l2-6 3-1z" fill="#FEA600"/>
<path transform="translate(81,361)" d="m0 0h251l6 5 1 2v303h-253l-12-1v-301l4-6z" fill="#FDB707"/>
<path transform="translate(1213,575)" d="m0 0h219l6 5 1 2 1 19v246l-1 1h-130l-8-2-9-1-85-1-2-1v-241l1-20 3-5z" fill="#FCB602"/>
<path transform="translate(949,587)" d="m0 0h29l21 4 15 5 16 8 14 9 14 12 9 11 7 11 6 12 5 16 4 23 1 11 1 27 11 25 16 41 15 40 7 18 2 8 1 22v23l-4 16-6 11-8 13-3 11v9h-11l-11 7-27 9-23 7-16 7-11 6-10 8-10 10-3-9-6-4-27-1 1-3 24-16 6-5 6-10 2-6v-22l-5-20-6-21-1-6v-15l2-9 6-21 8-14 12-16 6-12 2-6-8 5-8 2-11-1-5-3v-2l8-4 7-8 3-9v-8l-5-14-8-16-4-13-1-6v-26l1-9-10 11-14 11-17 9-14 5-3-1 11-14 7-14 4-12v-3l-11 8-14 9-13 6-16 5-8 1 6-11 4-10 1-10-12 13-11 10-13 10-15 10-18 10-9 3-2 56-1 17-2 6-4 2h-7l-6-3-4-4 8-2 5-5 3-7-1-10-7-17-5-14-3-16v-18l3-17 2-5-9-2-2-2 12-3 9-6 6-7 8-14 9-19 10-15 11-12 4-5 11-9 15-10 16-8 15-5 14-3z" fill="#181C39"/>
<path transform="translate(1111,104)" d="m0 0h409l5 4 2 5 1 440-2 2h-422v-443l3-5zm24 58v362h361v-362z" fill="#76A0FD"/>
<path transform="translate(428,195)" d="m0 0h581l6 5 1 3v352h-484l-7-7-9-4-7-1-12 3-6 4-5 5h-65v-353l5-6zm13 47-1 289 1 3h556v-292z" fill="#3473FD"/>
<path transform="translate(1293,952)" d="m0 0 6 1 5 5 2 3 1 27 4 8v2h2v-12l4-10 4-3 5 1 2 4v13l-4 12-3 7 1 7 2 4 2 1v-10l3-8 3-6 2-3h2v-2l4-2 5 1 2 2v12l-2 7-4 10-8 12-1 1 1 7 1 2 3-11 6-9 5-3 4 1 2 1 2 8v12l-4 13 6-1 10 1v-4l-2-7-1-12 2-8 3-3 7 1 6 8 3 10 1 6 3-8-1-4-11-19-3-9v-14l1-2h7l5 4 5 11 4 16 4-8-1-7-5-11-1-5v-15l3-4 5 2 4 5 2 6v12l3-3 4-8v-21l3-9 3-3 9-1 3 5v11l3-1h7l3 3-1 6-7 8-14 9-7 7-1 4 10-7 10-4 7 1 2 1-1 6-8 7-9 4-16 4h-3l-2 6-8 18v3l8-5h7l2 2v6l-6 9-8 7-11 7-5 21-1 8 8-11 8-7 5-3h9l2 2-1 8-7 9-8 7-10 6 4 2 8-7 5-3 9-1 4 2 1 7-6 13 4-1 2 1 3 12 4 20 7 3 2 1 4-8-7-16-3-10v-16l3-5h6l6 7 3 12 1 13 2-3-1-13v-25l4-12 4-6h7l4 6 1 4v17l4-5 1-4-4-16v-19l4-9 5-2 5 5 3 9v11l-2 11 5-5 3-2v-26l4-11 2-2h5l3 4 1 3-1 13-1 6 7-7h2l2-10 4-12 5-6 4-2h7l3 3v9l-2 5 9 3 1 1v6l-5 5-11 4-9 2-12 6-1 2 9-3 12-1 7 3 1 1v5l-6 4-7 2h-29l-8 8-9 11h3 10l4 4-2 6-8 6-9 4-15 4-15 25 14-9 7-3 9-1 5 2 2 2-1 5-4 5-10 6-16 5-15 2-2 6-6 12 10-9 13-8 12-4h9l5 3 1 1v6l-9 10-11 7-17 6-6 1-1 5-4 6 28-14 3-1h8l2 2v6l-4 6-8 7-19 8-25 8-11 3-8 17 17-10 28-14 14-6h14l5 3 1 2v6l-9 8-16 8-24 8-16 4-19 1-4 10 1 1 53-15 15-3 9 1 3 3v6l-7 8-8 5-18 4-18 2h-41l-1-3-4-2-8-11-2-1v16l-1 1h-47l-24-3-16-5-9-7-3-4v-6l5-3h11l17 4 16 5 29 8h4l-4-8v-4h-14l-13-2-25-7-19-8-10-7-3-3-1-7 5-4 3-1h8l10 3 15 7 25 13 14 8-8-17-10-4-29-9-18-8-7-6-4-5v-6l3-3 9 1 5 2 1-5-6-2-10-6-7-7-2-3v-6l3-3 11-1 11 4 5 3-1-5-9-3-13-5-9-7-2-4 1-4 2-2h12l6 3 1-1-13-18-16-8-5-6 1-5h2l-1-5-12-16h-17l-9-2-6-5 1-4 5-3h12l3 1-3-5-9-3-10-3-8-6v-5l2-3 7-1v-2l-2-4 1-10 2-2 10 1 7 8 6 20 5 4 3 3-1-7v-13l3-5h6l4 6 2 15v18l6 6 1-3-1-2v-19l3-7 2-3h7l2 2 3 10v13l-3 16-1 7 3 4v2h2l-1-3v-14l4-8 2-2h6l4 5 4 11 1 5v20l-1 7v8l2 2 1-16 3-9 4-5 7-4h7l9 4 5 4v2l6 1v-3l-6-2-10-8-7-8-3-6v-5l4-3h6l8 5 8 7 5 7v2h2l-7-28-13-8-8-8-4-7v-7l8-2 8 4-1-6-8-17-9-3-13-4-8-4-7-7v-5l3-2h8l18 9-7-8-15-10-5-5-3-5 1-5 2-2h8l2 1v-12z" fill="#92D449"/>
<path transform="translate(1133,843)" d="m0 0h74l85 1 13 2 19 5 11 6 12 9 10 9 10 13 8 16 4 11 3 17v18l-7 38-3 17-4 21-2 8 2 16 2 9-2-1-16-1 1-5 2-8v-12l-1-8-6-1-6 4-5 9-2 9-2 1-2-5v-5l7-10 7-14 1-6v-12l-3-2-7 1v2h-2l-2 4-4 12-1 1-1 10-3-1-3-6 1-7 5-13 1-4v-13l-2-4-5 1-3 3-3 8-1 12h-2l-5-10-1-27-4-6-4-2-6 1-2 3-1 12h-10l-2 3 1 5 3 5 15 10 10 9 1 3-6-2-8-5-5-2h-8l-2 1v5l5 5 6 4 11 4 13 3 4 6 7 16-1 4-8-4-8 1 2 9 6 8 7 6 11 7 6 24v4h-2l-8-11-9-7-4-2h-6l-3 2 1 8 7 9 8 7 9 5v3l-6-1v-2l-4-2-7-4-3-1h-7l-9 6-3 6-2 15v6h-3l-1-2v-8l1-7v-20l-3-12-5-8h-6l-3 4-2 5v17h-2l-4-6 1-7 3-16v-13l-3-10-1-1-7-1-4 10v19l1 4-2 2-7-7v-21l-2-12-3-5-6-1-2 5v13l1 8-4-2v-2l-4-2-3-5-5-17-6-7-10-1-2 5v6l-4-2-12-15-9-11-12-14-9-9-14-9-11-5-4-1-1-10 3-11 12-20 4-11 2-9v-23l-1-22-5-16z" fill="#76A0FD"/>
<path transform="translate(656,843)" d="m0 0h174l2 1 1 8-7 15-2 9v13l4 12 5 7 11 9 6 9 1 3v8l-4 10-7 9-4 5-8 7-4 2-17 2-14 5-11 7-12 9-9 10-7 9-6 1-176-1-5-23-3-19-3-14-1-9v-12l3-19 6-16 9-16 11-12 8-8 16-10 11-5 14-4z" fill="#76A0FD"/>
<path transform="translate(912,688)" d="m0 0h1l-1 11-5 12-5 8 15-3 15-6 16-9 13-10 3-1-1 8-5 13-8 13-8 10 11-3 19-9 12-9 10-9 5-6 1 4-1 6v26l4 16 6 14 6 12 2 7v8l-3 9-8 9-6 3h-2l3 3 7 2 11-1 8-4 3-1-2 9-7 12-12 16-7 14-5 18-2 9v15l4 18 1 7-9 6-6 3-8 2-8 3-9 2h-23l-4-1h-16l-4-1-1 2-1-1v-19l-14-2-14-5-12-7-9-7-7-7-9-13-8-16-6-17-3-29 1-4 3-66 1-7 16-8 11-6 12-8 12-9 10-9 8-7z" fill="#FCB4AD"/>
<path transform="translate(1399,224)" d="m0 0h45l3 3 1 234 27 1-1 2h-321v-2h23v-82l3-5 3-1h41l5 4v84h19v-138l4-4h44l4 4v138h23v-187l4-5 4-1h37l5 2 2 2 1 6v182l20 1v-233z" fill="#F45C1B"/>
<path transform="translate(1159,1179)" d="m0 0 1 2h2l10 13 9 12 7 9 20 26 14 18 10 13 7 9v2h2l11 15 12-1 6-1h8l-2 6v17l4 17 8 16 8 10 6 7 14 10 16 7-1 11-244 1-2 2h-83v-32l1-18 24-5 56-12 45-10h2l1-8 9-28 5-17 7-33 4-26z" fill="#FCB6B1"/>
<path transform="translate(569,574)" d="m0 0h27l21 6 16 8 13 10 8 8 10 13 8 10 10 13 12 15 3 4-2 4-7 6-17 13-16 13-13 10-10 8-13 10-15 12-13 10-11 9-13 10-14 11-4-2-7-9-10-13-8-10-11-14-9-12-8-16-4-12-2-9v-27l4-16 6-14 8-12 12-13 10-8 16-9 9-4z" fill="#3373FD"/>
<path transform="translate(1318,632)" d="m0 0h16v2l12 1 10 3 8 3v2l6 2 12 8 5 5 8 9 9 14 4 8 5 19 1 7v18l-3 16-5 13-8 14-3 5-13 13-13 9-12 6-17 5-8 1h-19l-16-3-16-6-11-7-10-8-7-7-10-14-6-13 1-5 38-13 48-16h3v-3l-9-3-16-8-23-12-34-17-1-3 6-9 9-10 9-8 11-7 4-3 8-3 7-2 13-2z" fill="#3373FD"/>
<path transform="translate(1143,895)" d="m0 0h1v6h72l16 4 14 6 16 11v2l4 2 8 9 8 12 6 13v9h-10l-2 3 1 5 3 5 15 10 10 9 1 3-6-2-8-5-5-2h-8l-2 1v5l5 5 6 4 11 4 13 3 4 6 7 16-1 4-8-4-8 1 2 9 6 8 7 6 11 7 6 24v4h-2l-8-11-9-7-4-2h-6l-3 2 1 8 7 9 8 7 9 5v3l-6-1v-2l-4-2-7-4-3-1h-7l-9 6-3 6-2 15v6h-3l-1-2v-8l1-7v-20l-3-12-5-8h-6l-3 4-2 5v17h-2l-4-6 1-7 3-16v-13l-3-10-1-1-7-1-4 10v19l1 4-2 2-7-7v-21l-2-12-3-5-6-1-2 5v13l1 8-4-2v-2l-4-2-3-5-5-17-6-7-10-1-2 5v6l-4-2-12-15-9-11-12-14-9-9-14-9-11-5-4-1-1-10 3-11 12-20 4-11 2-9z" fill="#5684FD"/>
<path transform="translate(1366,1266)" d="m0 0 4 2 8 11 3 3h49l22 1 10 5 5 6 3 7 1 8-2 18-6 17-9 14-3 4h-2l-2 4-9 8-14 8-4 2h-3l4 6-1 6-4 4h-81l-4-3-1-6 2-5-5-1-14-7-13-10-11-13-9-16-4-14-1-6v-17l3-7h2l2-4 8-6 8-2 20-1h47z" fill="#FEB600"/>
<path transform="translate(832,852)" d="m0 0 2 1 6 18 8 15 10 13 7 7 14 9 14 6 18 4 1 19 5-1h16l4 1h23l15-4 4-2 8-2 12-7 2-1 5 18 1 5v22l-5 12-7 8-27 18-1 2h-215l6-7 11-13 10-8 11-7 9-4 8-3 17-2 7-4 3-4h2l2-4 6-7 5-9 1-4v-8l-5-10-10-9-5-5-4-6-3-10v-13l3-12z" fill="#FE5F18"/>
<path transform="translate(428,195)" d="m0 0h581l6 5 1 3v20h-595v-21l5-6z" fill="#37286B"/>
<path transform="translate(1532,1028)" d="m0 0h7l3 3v9l-2 5 9 3 1 1v6l-5 5-11 4-9 2-12 6-1 2 9-3 12-1 7 3 1 1v5l-6 4-7 2h-29l-8 8-9 11h3 10l4 4-2 6-8 6-9 4-15 4-15 25 14-9 7-3 9-1 5 2 2 2-1 5-4 5-10 6-16 5-15 2-2 6-6 12 10-9 13-8 12-4h9l5 3 1 1v6l-9 10-11 7-17 6-6 1-1 5-4 6 28-14 3-1h8l2 2v6l-4 6-8 7-19 8-25 8-11 3-8 17 17-10 28-14 14-6h14l5 3 1 2v6l-9 8-16 8-24 8-16 4-19 1-4 10 1 1 53-15 15-3 9 1 3 3v6l-7 8-8 5-18 4-18 2h-41l-1-5 4-11-1-5-10-8-3-6 9-11 2 1 2 5 4 11v3h2l3-9 4-8v-4l-2-1v-2l-5-2-2-2 1-5 5-9 4 4 3 8v3h2l2-6 10-21 1-5-5 1-10 8-3 2h-3l-4-4-8 1-6 2v2l-8 8-9 19-3 6-4 1 2 3-1 8-1 2-4-2-7-15v-4l8-6h5l-1-4 7-10 4-6 3 2 5-5 1-4h-2l-3-17v-3h-2l1-4 6-5 8-10 8-8 3-6 9-6 7-8 3-5 1-3 5-4 2-2 2 1 3 12 4 20 7 3 2 1 4-8-7-16-3-10v-16l3-5h6l6 7 3 12 1 13 2-3-1-13v-25l4-12 4-6h7l4 6 1 4v17l4-5 1-4-4-16v-19l4-9 5-2 5 5 3 9v11l-2 11 5-5 3-2v-26l4-11 2-2h5l3 4 1 3-1 13-1 6 7-7h2l2-10 4-12 5-6z" fill="#79C82F"/>
<path transform="translate(262,1132)" d="m0 0h110l2 1v20h10l13 3 15 8 10 9 9 14 4 12 1 7v13l-4 16-3 6-8 11-10 9-12 7-14 3h-11l-1 2-17-9-9-6-10-8-10-9-7-7-9-11-10-13-8-12-6-11-9-16-9-19-7-17z" fill="#AABAF9"/>
<path transform="translate(1293,952)" d="m0 0 6 1 5 5 2 3 1 27 4 8v2h2v-12l4-10 4-3 5 1 2 4v13l-4 12-3 7 1 7 2 4 2 1v-10l3-8 3-6 2-3h2v-2l4-2 5 1 2 2v12l-2 7-4 10-8 12-1 1 1 7 1 2 3-11 6-9 5-3 4 1 2 1 2 8v12l-4 13 6-1 10 1v-4l-2-7-1-12 2-8 3-3 7 1 6 8 3 10 1 6 3-8-1-4-11-19-3-9v-14l1-2h7l5 4 5 11 4 16 4-8-1-7-5-11-1-5v-15l3-4 5 2 4 5 2 6v12l3-3 4-8v-21l3-9 3-3 9-1 3 5v11l3-1h7l3 3-1 6-7 8-14 9-7 7-1 4 10-7 10-4 7 1 2 1-1 6-8 7-9 4-16 4h-3l-2 6-8 18v3l8-5h7l2 2v6l-6 9-8 7-11 7-5 21-1 8 8-11 8-7 5-3h9l2 2-1 8-7 9-8 7-10 6 2 4h2l-1 9-7 11-7 7-15 10-7 4h-2l3 22v10l-4 8-2-1-1-6-5-2-7-5 2-6 2-4 5 1-1-20-3-3-6-1-8 6-1-1v-8l2-1h1l-4-3-3-13-3-4-4-1-1 8-2 1v5h-2l2 1-1 8-3 10-4-2 3 4-1 4-5-2-5-4-2-6 3-5 1-5 4-8 2-7h2l-2-3-1-14-3-5 3-2 8 1 7 4 4 3v2l6 1v-3l-6-2-10-8-7-8-3-6v-5l4-3h6l8 5 8 7 5 7v2h2l-7-28-13-8-8-8-4-7v-7l8-2 8 4-1-6-8-17-9-3-13-4-8-4-7-7v-5l3-2h8l18 9-7-8-15-10-5-5-3-5 1-5 2-2h8l2 1v-12z" fill="#79C82F"/>
<path transform="translate(747,901)" d="m0 0h81l5 7 11 9 6 9 1 3v8l-4 10-7 9-4 5-8 7-4 2-17 2-14 5-11 7-12 9-9 10-7 9-6 1-62-1 4-20 10-42 5-18 6-10 2-3h2l2-4 14-9 11-4z" fill="#5684FD"/>
<path transform="translate(509,542)" d="m0 0 10 2 8 5 8 9 13 17 2 2-1 4-16 8-11 8-9 9-4 5-5-2-39 30-43 33-14 11-16 12-18 14-52 40-30 23-18 14-17 13-18 14-20 15-15 12-16 12-18 14-13 10-30 23-17 13-5 3-1-1v-10l9-8 12-9 13-10 30-23 18-14 17-13 18-14 16-12 14-11 26-20 17-13 18-14 17-13 9-7 13-10 21-16 14-11 16-12 18-14 30-23 10-8 12-9 13-10 12-9-2-5-6-7-4 2-16 12-26 20-18 14-21 16-13 10-18 14-43 33-34 26-18 14-52 40-17 13-18 14-13 10-34 26-18 14-16 12-14 11-1 1-8-1-4-2 5-5 15-12 20-15 15-12 30-23 30-23 17-13 18-14 17-13 18-14 21-16 26-20 17-13 14-11 43-33 18-14 17-13 18-14 12-9 27-21h2l-1-6v-9l4-11 7-7 10-4z" fill="#FE5F17"/>
<path transform="translate(1399,224)" d="m0 0h45l3 3 1 235h-53v-233z" fill="#FEB601"/>
<path transform="translate(1111,104)" d="m0 0h409l5 4 2 5v19h-423v-20l3-5z" fill="#37286A"/>
<path transform="translate(499,625)" d="m0 0 3 1 7 19 9 15 3 4v2h2l7 8 13 9 13 6 13 3 14 1 15-2 15-5 12-7 14-11 10-8 14-11 13-10 4 1 7 8 10 13-2 4-7 6-17 13-16 13-13 10-10 8-13 10-15 12-13 10-11 9-13 10-14 11-4-2-7-9-10-13-8-10-11-14-9-12-8-16-4-12-2-9v-27l4-16z" fill="#0B4BFD"/>
<path transform="translate(248,1132)" d="m0 0h14l10 24 10 21 10 17 10 16 10 13 12 14 7 7 3 2v2l4 2 14 11 11 6 10 5 1 3-5 10-9 7-11 2h-80l-9-3-8-6-4-7-2-7v-136z" fill="#8EA9FC"/>
<path transform="translate(210,495)" d="m0 0 4 5 8 14 12 22 3 5v3h-16v88h104v2h-236v-2h18v-27h-17l-1-2 8-2 13-19 2-3 4 1 12 17 4 5h18v-26l-61-1v-2l50-1 9-15 5-7v-4l-64-1v-1l68-1 3-1 2 1 22 1 1-5 11-19 4-8z" fill="#8AABFB"/>
<path transform="translate(210,1358)" d="m0 0 309 1v31h-314v-31z" fill="#FDFBFB"/>
<path transform="translate(165,1306)" d="m0 0h315v29h-315z" fill="#FDFDFD"/>
<path transform="translate(99,928)" d="m0 0 2 3 15 102 26 175 12 81v7l-2 10v38h2l1 2 10 1v13h-47v-29l5-1-14-93-18-122-17-116-9-61v-5l10 4 3 16 19 129 18 121 14 95 4 27h15l-3-23-19-128-18-122-16-108-1-9z" fill="#FE5F17"/>
<path transform="translate(267,1293)" d="m0 0h194l14 1 5 4v8h-315v29h315v8l-4 4-283 1-2 4-1 8h-25v-13h-10l-1-3h-2l-1-20v-18l2-10 1-2z" fill="#92D549"/>
<path transform="translate(487,588)" d="m0 0 4 2 7 9-1 3-26 20-12 9-14 11-17 13-18 14-17 13-16 12-15 12-12 9-13 10-18 14-17 13-18 14-16 12-36 28-12 9-18 14-17 13-18 14-13 10-43 33-6 5h-2l-6-9-4-4 17-13 18-14 16-12 18-14 17-13 18-14 13-10 173-133 9-7 13-10 21-16 18-14 26-20z" fill="#E1EAF7"/>
<path transform="translate(1108,1106)" d="m0 0h2l22 32 10 15 13 19 3 4v11l-2 21-1 17-4 23-5 22-7 23-8 26-1 4-15 4-23 5h-12l5-20 10-27 8-22 7-24 4-23 1-13v-31l-2-27z" fill="#F9440C"/>
<path transform="translate(192,1347)" d="m0 0h322l5 4v8h-314v31h314v7l8 1v1l-10 1-2 1h-321l-4-4v-45z" fill="#FE6217"/>
<path transform="translate(1159,1179)" d="m0 0 1 2h2l10 13 9 12 7 9 20 26 14 18 10 13 7 9v2h2l10 13-1 4-30 5-42 8-26 6-16 3h-6l2-9 11-37 5-19 6-32 3-24z" fill="#5785FD"/>
<path transform="translate(1251,320)" d="m0 0h44l4 4 1 139h-55l2-1v-138z" fill="#FEB601"/>
<path transform="translate(273,427)" d="m0 0h3l7 14 11 18 6 11 8 14v2h2l6 12v2l-25 1v104l-1 28h-32v-133h-25l2-5 9-17 11-18 6-11 10-18z" fill="#FE5F18"/>
<path transform="translate(81,361)" d="m0 0h251l6 5 1 2v20h-265v-19l4-6z" fill="#37286B"/>
<path transform="translate(1318,632)" d="m0 0h16v2l12 1 10 3 8 3v2h2l-1 5-10 19-27 54-10-4-16-8-23-12-34-17-1-3 6-9 9-10 9-8 11-7 4-3 8-3 7-2 13-2z" fill="#77A0FD"/>
<path transform="translate(90,935)" d="m0 0 2 1 14 96 15 101 28 189-1 4h-15l-2-7-12-82-18-121-16-109-10-67v-3l12-1z" fill="#DFEAF8"/>
<path transform="translate(1298,1283)" d="m0 0h17v1h-5l1 4h-5v2l2 1 1 14 4 16 8 16 4 5v2h2l5 6 6 5v2l5 2 12 7 20 6 53 1 6-2 2 2-4 5-12 6h-3l4 6-1 6-4 4h-81l-4-3-1-6 2-5-5-1-14-7-13-10-11-13-9-16-4-14-1-6v-17l3-7h2l2-4 8-6z" fill="#FEA600"/>
<path transform="translate(1424,953)" d="m0 0h6l3 5v11l3-1h7l3 3-1 6-7 8-14 9-7 7-1 4 10-7 10-4 7 1 2 1-1 6-8 7-9 4-16 4h-3l-2 6-8 18v3l8-5h7l2 2v6l-6 9-8 7-11 7-5 21-1 8 8-11 8-7 5-3h9l2 2-1 8-7 9-8 7-10 6v2l-9 1-8 5-5 5-2 3h-2l-2 6-3 3-5 8h-1l-1-5v-11l5-3h3v-2l8-2 2-4 5-4 4-8 2-12-1-9-5-1-5 8-2 6-3 3-7 11-5 9-1 2-3-1-2-16v-5l4-3 3-5 5-5 6-8 3-9 1-13-3-10-1-12 2-8 3-3 7 1 6 8 3 10 1 6 3-8-1-4-11-19-3-9v-14l1-2h7l5 4 5 11 4 16 4-8-1-7-5-11-1-5v-15l3-4 5 2 4 5 2 6v12l3-3 4-8v-21l3-9 3-3z" fill="#92D549"/>
<path transform="translate(1213,575)" d="m0 0h219l6 5 1 2v17h-233v-17l3-5z" fill="#37286B"/>
<path transform="translate(1496,163)" d="m0 0 4 2 3 4v363h-362l-7-7v-1h362z" fill="#3775FE"/>
<path transform="translate(85,1360)" d="m0 0h105l1 37 1 3h-140v-7l4-12 6-8 9-8 10-4z" fill="#3473FD"/>
<path transform="translate(252,294)" d="m0 0h128v39h-129v-38z" fill="#DCECFC"/>
<path transform="translate(404,816)" d="m0 0h129v38l-1 1h-127l-1-1z" fill="#DCECFC"/>
<path transform="translate(182,136)" d="m0 0h130l1 5v31l-2 2h-127l-2-1z" fill="#DCECFC"/>
<path transform="translate(1016,205)" d="m0 0 2 3v2l3 1 1 8v331l-2 6-5 4-4 1-470 1-6-2-3-5h484z" fill="#B7C7E5"/>
<path transform="translate(1182,374)" d="m0 0h41l5 4 1 85h-52l-1-1v-82l3-5z" fill="#FE5F17"/>
<path transform="translate(103,189)" d="m0 0h120l1 1v36l-6 1-116-1v-36z" fill="#DCECFC"/>
<path transform="translate(220,913)" d="m0 0h121v37h-122v-36z" fill="#DCECFC"/>
<path transform="translate(134,972)" d="m0 0h121v37h-121l-1-4v-31z" fill="#DCECFC"/>
<path transform="translate(958,122)" d="m0 0h121v37l-121 1-1-2z" fill="#DCECFC"/>
<path transform="translate(620,158)" d="m0 0h121v36h-122v-35z" fill="#DCECFC"/>
<path transform="translate(1527,114)" d="m0 0 4 4 2 8v414l-1 14-2 2-4 3h-406l-5-2 3-2 408-1 1-1z" fill="#BFCDE1"/>
<path transform="translate(832,852)" d="m0 0 2 1 6 18 8 15 10 13 7 7 14 9 14 6 18 4v20l-5 5-5 6-2 5-2 1-40 3-22 3-8 1 6-7 3-1 2-4 6-7 5-9 1-4v-8l-5-10-10-9-5-5-4-6-3-10v-13l3-12z" fill="#181C3A"/>
<path transform="translate(222,514)" d="m0 0h36l1 4v112l-1 2h-37l-1-24 1-64h16l-6-12-8-14z" fill="#FDB80F"/>
<path transform="translate(1094,604)" d="m0 0h111v37h-111l-1-1v-35z" fill="#DCECFC"/>
<path transform="translate(983,1013)" d="m0 0h11l6 4 2 3 1 8v340l-1 31h-10l-1-376-3-6z" fill="#FDF9F9"/>
<path transform="translate(375,1164)" d="m0 0h9l11 3 11 6 5 5 6 7 6 12 2 9v14l-4 12-6 10-5 6-10 7-13 5h-13v-95z" fill="#DAEBFB"/>
<path transform="translate(722,1197)" d="m0 0 13 1 12 6 7 7 5 10 1 3v17l-6 12-5 5-6 5-13 4h-8l-9-2-10-6-7-8-4-9-1-4v-12l3-10 8-10 9-6z" fill="#FDFCFC"/>
<path transform="translate(1243,677)" d="m0 0 8 5 34 17 19 10 23 11v3l-38 13-37 12-14 5-3 1-4-18v-22l3-15 5-14z" fill="#FE5F18"/>
<path transform="translate(512,349)" d="m0 0h9l8 1 1 1v130l-1 1-8 1h-9l-8-1v-132z" fill="#FE5F18"/>
<path transform="translate(731,349)" d="m0 0h10l7 1 1 4v127l-1 1-7 1h-10l-8-1v-132z" fill="#FDB202"/>
<path transform="translate(871,290)" d="m0 0h25v132l-1 1h-23l-1-1z" fill="#FE5F18"/>
<path transform="translate(652,290)" d="m0 0h25v132l-1 1h-23l-1-1z" fill="#FE5F18"/>
<path transform="translate(210,495)" d="m0 0 4 5 8 14 12 22 3 5v3h-16v89h-21v-89h-16l1-5 11-19 4-8z" fill="#3373FD"/>
<path transform="translate(295,1012)" d="m0 0h2l2 13 7 18 7 12 14 18 6 12 1 4v12l-5 10-9 8-11 4-10 1 3-11-1-12-4-9-7-12-7-11-4-9-1-4v-13l5-14 8-12z" fill="#FEFEFE"/>
<path transform="translate(1290,1011)" d="m0 0 14 4 9 3 8 16 2 5-1 4-8-4-8 1 2 9 6 8 7 6 11 7 6 24v4h-2l-8-11-9-7-4-2h-6l-3 2 1 8 7 9 8 7 9 5v3l-6-1v-2l-4-2-7-4-3-1h-7l-9 6-3 6-2 15v6h-3l-1-2v-8l1-7v-20l-3-12-5-8-4-2 3-1 9-51z" fill="#76A0FE"/>
<path transform="translate(1e3 1362)" d="m0 0h73l5 3 5 5v27l-2 2h-81l-1-5v-26z" fill="#FEB701"/>
<path transform="translate(339,369)" d="m0 0h1v6l4 1 1 7 1 1v282l-5 8-17 2h-231l-8-3 3-3 251 1z" fill="#CAC8D7"/>
<path transform="translate(536,556)" d="m0 0h480v3l-5 2-470 1-6-2z" fill="#BFCDE0"/>
<path transform="translate(917,367)" d="m0 0 15 1 1 1v85l-8 1h-10l-8-1v-85l1-1z" fill="#FDAF03"/>
<path transform="translate(245,288)" d="m0 0h141l1 2v43l-1 6h-142v-50zm7 6-1 1v38h129v-39z" fill="#C2DDFA"/>
<path transform="translate(398,810)" d="m0 0h141v50l-1 1h-140l-1-4v-44zm6 6v38l1 1h127l1-1v-38z" fill="#C2DDFA"/>
<path transform="translate(625,367)" d="m0 0 15 1 1 51v30l-1 5-7 1h-10l-8-1v-86z" fill="#FCB303"/>
<path transform="translate(96,183)" d="m0 0h134v49l-1 1h-133zm7 6-1 1v36l120 1 2-1v-36l-1-1z" fill="#C2DDFA"/>
<path transform="translate(213,907)" d="m0 0h133l1 1v49h-132l-2-1zm7 6-1 1v36h122v-37z" fill="#C2DDFA"/>
<path transform="translate(176,130)" d="m0 0h142l1 2v47l-1 1h-140l-2-1-1-48zm6 6v37l2 1h127l2-2v-33l-1-3z" fill="#C2DDFA"/>
<path transform="translate(800,317)" d="m0 0h21l2 1v85l-1 1h-24v-86z" fill="#FDB203"/>
<path transform="translate(580,317)" d="m0 0h23l1 1v85l-1 1h-24v-86z" fill="#FE5F18"/>
<path transform="translate(951,116)" d="m0 0h134l1 4v43l-1 3h-134zm7 6-1 37 2 1 120-1v-37z" fill="#C2DDFA"/>
<path transform="translate(834,368)" d="m0 0h25v86h-25z" fill="#FBFCFD"/>
<path transform="translate(1032,63)" d="m0 0h142v40h343v1h-400v-1h51l-1-33h-130l1 36h66l2 3-2 4h-72l-1-1v-48z" fill="#B3D1FA"/>
<path transform="translate(256,965)" d="m0 0 5 1v49h-134v-48l1-1zm-122 7-1 2v34l1 1h121v-37z" fill="#C2DDFA"/>
<path transform="translate(222,514)" d="m0 0h36l1 4v53l-1 4h-37v-31h16l-6-12-8-14z" fill="#FDBA11"/>
<path transform="translate(1439,583)" d="m0 0h1l1 5 4 4 1 115h-2v2h5l1 4v2l-5 1 1 34v2l4 1 1 5-6 3 1 77-1 7h-2l-2 5v3h-103l-1 2 2 2v3l-4-2-3-1v-2l-5-1-9-4-5-1v-1l126-1z" fill="#C9C8D8"/>
<path transform="translate(1448,716)" d="m0 0h51v37h-48l-6-4v-32z" fill="#DCECFC"/>
<path transform="translate(74,888)" d="m0 0h10l10 4 6 5 4 7 1 11-3 10-6 7-6 4-3 1h-13l-8-3-7-7-4-10v-9l4-9 5-5 7-5z" fill="#3473FD"/>
<path transform="translate(613,152)" d="m0 0h134l1 41 259 1v1h-577v-1h183zm7 6-1 1v35h122v-36z" fill="#C1D7F2"/>
<path transform="translate(1205,585)" d="m0 0h1v17l-1 2-111 1v35l111 1v6l-2 1-116-1v-49l117-1z" fill="#C2DCF9"/>
<path transform="translate(687,387)" d="m0 0h26v57l-1 1h-25z" fill="#FDFDFD"/>
<path transform="translate(339,369)" d="m0 0h1v6l4 1 1 7 1 1v282l-4 7h-2z" fill="#BFCDE1"/>
<path transform="translate(89,573)" d="m0 0h62l1 1v29l-1 2h-31l1 26 30 1h174v2h-236v-2h18v-27h-17l-1-2 8-2 13-19 2-3 4 1 12 17 4 5h18v-26l-61-1z" fill="#FDF6F5"/>
<path transform="translate(469,387)" d="m0 0h24l1 1v56l-1 1h-24l-1-5v-52z" fill="#FAB404"/>
<path transform="translate(1135,162)" d="m0 0h361v362h-361v-5l3 3h355l2 1-1-357-2-2-357-1z" fill="#D3E5F7"/>
<path transform="translate(1e3 1081)" d="m0 0 7 6 14 14 5 10 1 5v9l-4 13-6 9-9 8-5 3h-3z" fill="#181C39"/>
<path transform="translate(1116,559)" d="m0 0h404l3 2-1 1h-404l-3-2z" fill="#C2DDFA"/>
<path transform="translate(221,575)" d="m0 0h37l1 2v24l-1 2h-36l-1-1z" fill="#FEB600"/>
<path transform="translate(1449,709)" d="m0 0h55l1 1v49h-55v-6l-6-1 3-3 4 3 48 1v-37l-54 1 2-2h3z" fill="#C2DDFA"/>
<path transform="translate(542,387)" d="m0 0h25v38h-25z" fill="#F9FBFD"/>
<path transform="translate(944,387)" d="m0 0h25v37l-1 1h-24z" fill="#FE5F18"/>
<path transform="translate(762,387)" d="m0 0h24v37l-1 1-14 1-9-1-1-1v-36z" fill="#FE5F18"/>
<path transform="translate(168,575)" d="m0 0h31l1 1v26l-1 1h-31l-1-1v-26z" fill="#FDB401"/>
<path transform="translate(222,514)" d="m0 0h36l1 4v24l-1 3-21 1h-16v-2h16l-6-12-8-14z" fill="#FCBB17"/>
<path transform="translate(166,605)" d="m0 0h34v27h-33l-1-2z" fill="#FBB603"/>
<path transform="translate(120,605)" d="m0 0h32v24l-1 3h-30l-1-1z" fill="#FDB705"/>
<path transform="translate(165,545)" d="m0 0h34l1 1v26l-1 1h-20l-8-13v-3h-2v-3h-2l-2-6h-2v-2z" fill="#FDB603"/>
<path transform="translate(1135,519)" d="m0 0 3 3h343l1 2h-347z" fill="#E3ECF6"/>
<path transform="translate(461,1019)" d="m0 0 1 3-1 270h15l5 5v47l-1 2h6v1h-10l3-4v-45l-4-3-14-1-2-1v-268z" fill="#FEB701"/>
<path transform="translate(532,555)" d="m0 0h484v1l-480 1h-3z" fill="#AABAF9"/>
<path transform="translate(1281,1193)" d="m0 0 9 2 26 6 4 10 4 8v2l-5-1-23-13-12-6-4-4z" fill="#79C52C"/>
<path transform="translate(1413,1124)" d="m0 0 1 2-4 9-12 12-6 4-3 6-10 10-5 6h-2l2-20 20-12 11-9z" fill="#DFE9F6"/>
<path transform="translate(1450,1220)" d="m0 0 1 4v2l-12 5-18 10-14 7-7 4 2-6 7-13 27-8z" fill="#DEEAF8"/>
<path transform="translate(1333,1188)" d="m0 0 5 3 10 11 1 4-4 9-4-1-10-5-8-6-1-3 6-7h2l2-4z" fill="#78C72E"/>
<path transform="translate(945,778)" d="m0 0 5 1 3 4 4-1h4l-1 5-6 4-2 7-5 5h-6l-4-5v-11l4-7z" fill="#181C3A"/>
<path transform="translate(858,778)" d="m0 0 5 1v3l7-4 5 1 3 4 1 7-3 9-4 4h-6l-4-5-1-10-3-3z" fill="#181C3A"/>
<path transform="translate(1360,1085)" d="m0 0 3 1 4 6-1 5-6 10-6 9-2 5-3-1-2-16v-5l4-3 3-5 5-5z" fill="#93D54C"/>
<path transform="translate(1412,1128)" d="m0 0 1 4-2 4v20l3 1 4 8 2 1v2h2v2l4 2 2 2-2 9-2 4h-2l-1 2-2-7-5-17-2-2v-3h-2l-4-7-5-4-4-2 13-13z" fill="#9AD75B"/>
<path transform="translate(166,1347)" d="m0 0h26v3l-2 10h-25v-12z" fill="#D6E6FB"/>
<path transform="translate(1305,1132)" d="m0 0 5 1 2 1 1 3 2 1-1 8-3 10-4-2 3 4-1 4-5-2-5-4-2-6 3-5 1-5z" fill="#78C72E"/>
<path transform="translate(1368,1250)" d="m0 0 4 2 9 8 4 3-1 6-4 11-4-2-10-14v-12z" fill="#E0E9F6"/>
<path transform="translate(429,555)" d="m0 0h57l-2 6-9 1-40-1-3-4z" fill="#BCC9E4"/>
<path transform="translate(1376,990)" d="m0 0h7v3l-7-1v16l4 11 11 18-2 9-2 3-2-7-3-10-5-7-9-1 1-7 3-16 3-10z" fill="#DCE9F8"/>
<path transform="translate(1476,1157)" d="m0 0v3l6-1-2 4h-2l-1 2h-9l-12 4-14 9-9 8-1-2 9-17 23-5z" fill="#DFEBF8"/>
<path transform="translate(1424,1257)" d="m0 0 1 2-3 2 5 1-2 2-32 9-2-2 4-10 1-1 19-1z" fill="#DFEAF7"/>
<path transform="translate(1438,1198)" d="m0 0h2l-1 5-4 6 3 1-22 11-1-2 9-18z" fill="#92D549"/>
<path transform="translate(1360,1152)" d="m0 0 5 2 1 1v9l-2 15-4 4-2-1-3-21v-6z" fill="#DFE8F6"/>
<path transform="translate(869,741)" d="m0 0h6l4 3-1 5-5 3-13 3-8 5 3-9 7-7z" fill="#181C3A"/>
<path transform="translate(1231,1084)" d="m0 0h8l15 15 3 6-12-1-10-12-4-6z" fill="#5484FE"/>
<path transform="translate(942,737)" d="m0 0h11l6 3 7 8v2l-7-2-19-1-2-2 1-5z" fill="#181C3A"/>
<path transform="translate(1262,1125)" d="m0 0 7 1 5 2 11 17 3 5v2l-4-1-10-8-12-16z" fill="#7BA1FB"/>
<path transform="translate(1393,990)" d="m0 0 2 2 3 10 4 9-1 6-4 7-2-4-4-16-4-8-3-3 4 1v-2z" fill="#E0E7F4"/>
<path transform="translate(1154,1218)" d="m0 0h1l-1 14-5 25-6 23-10 33-3 10-15 4-18 4h-5l3-2 32-7 4-11 4-13 6-19 4-17 1-7 2-7 3-14z" fill="#FE5F18"/>
<path transform="translate(687,387)" d="m0 0h26v57h-1v-56h-23v55l9 1v1h-11z" fill="#AFC5F9"/>
<path transform="translate(1391,1234)" d="m0 0 5 1 1 5-8 17h-2l-5-14v-5z" fill="#DFE9F7"/>
<path transform="translate(1369,1059)" d="m0 0h1l1 9 5 11 2 2-5 3-6 12-3-7-4-5 5-6 3-9z" fill="#92D549"/>
<path transform="translate(879,423)" d="m0 0h9v21l-1 3-5 1-3-3z" fill="#1D1E42"/>
<path transform="translate(660,423)" d="m0 0h9v21l-3 4-5-1-1-3z" fill="#1D1E42"/>
<path transform="translate(696,445)" d="m0 0h8v23l-2 2-5-1-1-1z" fill="#201F46"/>
<path transform="translate(477,445)" d="m0 0h9l-1 23-5 2-3-2z" fill="#201F46"/>
<path transform="translate(731,483)" d="m0 0h10l-1 22-2 2h-5l-1-1z" fill="#1D1E41"/>
<path transform="translate(512,483)" d="m0 0h9v22l-2 2h-5l-1-1z" fill="#201F46"/>
<path transform="translate(1464,1189)" d="m0 0v3l-3 2 6-1-1 2-10 4-18 10-4 1 6-12 18-6z" fill="#E2E7F3"/>
<path transform="translate(664,269)" d="m0 0 4 2 1 3v16h-16v-1h7v-17l1-2z" fill="#1F1E44"/>
<path transform="translate(880,270)" d="m0 0h6l2 5v13l1 2h-12l2-1v-17z" fill="#1E1E43"/>
<path transform="translate(1285,1165)" d="m0 0 11 1 3 3 8 15v2l-4-2-16-13z" fill="#77C72D"/>
<path transform="translate(480,366)" d="m0 0 4 1 1 1 1 19h-9v-19z" fill="#211F48"/>
<path transform="translate(944,425)" d="m0 0h24v1h-7v12l-2 4h-5l-2-2v-14h-8z" fill="#211F48"/>
<path transform="translate(699,366)" d="m0 0 5 2v19h-8v-19z" fill="#211F48"/>
<path transform="translate(515,329)" d="m0 0 5 1 1 1v18h-9l1-18z" fill="#201F46"/>
<path transform="translate(1362,1256)" d="m0 0h1l-1 27h-3l-5-16-1-4 5-4h2v-2z" fill="#7EC52B"/>
<path transform="translate(734,329)" d="m0 0 5 1 1 2 1 17h-10l1-18z" fill="#1D1E42"/>
<path transform="translate(1397,1397)" d="m0 0h10l8 1 1 2h-72v-2z" fill="#FE5F18"/>
<path transform="translate(1412,1128)" d="m0 0 1 4-2 4v20l3 1-1 2-2-1-1 2-4-7-5-4-4-2 13-13z" fill="#91D448"/>
<path transform="translate(1337,1184)" d="m0 0 12 6 3 3v6l-2 4-4-2-11-12 1-4z" fill="#D4E2F7"/>
<path transform="translate(1331,1109)" d="m0 0 4 2 6 4 3 12v7l-4-4-6-10-4-5-5-3 2-1 4 1z" fill="#92D549"/>
<path transform="translate(1360,1085)" d="m0 0 3 1 4 6-1 5-5 8-4-5-2-3v-6z" fill="#DDE9F7"/>
<path transform="translate(1240,1283)" d="m0 0 4 4 7 9-1 4-4 1h-9l2-16z" fill="#84A5F7"/>
<path transform="translate(550,425)" d="m0 0h9v14l-4 4-4-2-1-2z" fill="#211F48"/>
<path transform="translate(768,425)" d="m0 0h17v1h-7l-1 15-1 1h-6l-1-3z" fill="#201F47"/>
<path transform="translate(954,370)" d="m0 0h5l2 4v13h-9v-15z" fill="#1F1E45"/>
<path transform="translate(552,370)" d="m0 0h5l2 3v14h-9v-14z" fill="#1F1F45"/>
<path transform="translate(771,370)" d="m0 0h5l2 3v14h-9v-14z" fill="#1F1F45"/>
<path transform="translate(1313,1168)" d="m0 0 1 2 4 2 3 2-1 8-2 8-3-3-5-9 1-5z" fill="#77C72D"/>
<path transform="translate(799,404)" d="m0 0h23v1h-8l1 7-2 6h-5l-2-2v-11h-7z" fill="#211F47"/>
<path transform="translate(1476,1157)" d="m0 0v3l6-1-2 4h-2l-1 2h-9l-12 4-4 2v-2l-4-2 2-2 17-4z" fill="#E2E5EE"/>
<path transform="translate(580,404)" d="m0 0h23v1h-8v12l-1 1h-5l-2-2v-11h-7z" fill="#201F46"/>
<path transform="translate(91,370)" d="m0 0 6 1 3 3-1 6-2 2h-7l-3-4 1-6z" fill="#FE5F18"/>
<path transform="translate(1366,1266)" d="m0 0 4 2 9 12v3h-11l-1-1z" fill="#FE5F18"/>
<path transform="translate(1121,113)" d="m0 0h5l3 3v7l-2 2h-7l-3-3 1-7z" fill="#FE5F18"/>
<path transform="translate(438,204)" d="m0 0 6 1 2 3v5l-3 3h-7l-2-2v-7z" fill="#FD5E17"/>
<path transform="translate(1343,1239)" d="m0 0 7 3 4 5-1 8-1 2-4-2-6-12z" fill="#FE7212"/>
<path transform="translate(846,353)" d="m0 0 4 1 1 1v13h-8v-13z" fill="#22204A"/>
<path transform="translate(627,353)" d="m0 0 5 2v12l-5 1-4-1 1-12z" fill="#1F1E44"/>
<path transform="translate(809,303)" d="m0 0 4 1 2 7v6h-9v-12z" fill="#1E1E44"/>
<path transform="translate(843,454)" d="m0 0h7l1 1v11l-1 2h-6l-1-1z" fill="#252047"/>
<path transform="translate(918,353)" d="m0 0 5 1 1 1v12l-9 1 1-13z" fill="#211F48"/>
<path transform="translate(1376,990)" d="m0 0h7v3l-7-1v16l4 11 1 3h-2l-3-5-2-1-1-3h-3l1-8 3-12z" fill="#DFE2EF"/>
<path transform="translate(590,303)" d="m0 0 4 1 1 1 1 12h-9v-11z" fill="#1E1E43"/>
<path transform="translate(122,371)" d="m0 0h6l3 3-1 6-2 2-7-1-2-6z" fill="#EEF0F4"/>
<path transform="translate(916,455)" d="m0 0h8v12l-5 2-3-2z" fill="#211F49"/>
<path transform="translate(624,455)" d="m0 0h8v12l-1 1h-6l-1-1z" fill="#1E1E43"/>
<path transform="translate(106,371)" d="m0 0h6l3 4-2 6-1 1-7-1-2-3 1-5z" fill="#2C6CFD"/>
<path transform="translate(453,205)" d="m0 0h5l3 2v6l-3 3-7-1-1-2v-6z" fill="#2F6FFD"/>
<path transform="translate(469,205)" d="m0 0 7 1 1 1v6l-3 3h-5l-3-3 1-7z" fill="#F1F4FA"/>
<path transform="translate(1152,114)" d="m0 0h6l3 3-1 6-3 2-6-1-1-1v-7z" fill="#F0F5F5"/>
<path transform="translate(1467,1079)" d="m0 0 4 2 3 2 3 14-4 6-3 3v-19z" fill="#DFEAF7"/>
<path transform="translate(1136,114)" d="m0 0h6l2 1v8l-3 2-6-1-2-5z" fill="#306FFD"/>
<path transform="translate(1220,583)" d="m0 0h5l3 3-1 6-2 2h-5l-3-3 1-7z" fill="#FE5F18"/>
<path transform="translate(1292,1357)" d="m0 0 7 6 7 7 13 8 10 5 5 2v2l-9-3-12-6-13-10-8-9z" fill="#FEB701"/>
<path transform="translate(1382,1026)" d="m0 0h2l7 11-2 9-2 3-2-7-3-10-2-4z" fill="#E2E7F2"/>
<path transform="translate(1355,1125)" d="m0 0 6 5 1 2-3 3-5 8h-1l-1-5v-11z" fill="#92D549"/>
<path transform="translate(121,1317)" d="m0 0h1l1 13-4 1-1 29-2-1v-30l5-2z" fill="#F2D8DA"/>
<path transform="translate(1299,1146)" d="m0 0h2l2 6h2l5 6-1 4-5-2-5-4-2-6z" fill="#76A0FE"/>
<path transform="translate(1397,1081)" d="m0 0h2l-1 3-6 5-8 12h-1l1-10 1-5 5-2 1 3 3-5z" fill="#E0E7F3"/>
<path transform="translate(1394,1174)" d="m0 0 3 1-1 4-7 8-6 4-1-1v-5l10-9z" fill="#E1E9F5"/>
<path transform="translate(1433,987)" d="m0 0v3l-5 3h-2l2 2 5-1-3 3-10 6-4 3-2-1 4-6 7-7z" fill="#E6E1EA"/>
<path transform="translate(133,893)" d="m0 0h2v2h-2l-2 5-6 1-1 5-3 1-1 2h-4v4h-2l-1-2-4 2 5-5 14-11z" fill="#F0E8EB"/>
<path transform="translate(1276,1301)" d="m0 0h1v13l3 17 4 8 1 7-3-3-4-10-3-14v-17z" fill="#FEB701"/>
<path transform="translate(1233,584)" d="m0 0h6l2 2v6l-1 1h-7l-2-6z" fill="#2E6EFD"/>
<path transform="translate(1247,584)" d="m0 0h7l1 1v7l-2 1h-6l-1-2v-6z" fill="#F3F6F6"/>
<path transform="translate(1370,1059)" d="m0 0 2 2 8 16-1 4-4-2-5-11z" fill="#E2E7F0"/>
<path transform="translate(1264,1084)" d="m0 0 4 1v19h-2l-4-6 1-7z" fill="#467DFE"/>
<path transform="translate(1365,1038)" d="m0 0h1l2 12 2 9-8-2 1-8z" fill="#DBE8F7"/>
<path transform="translate(129,1298)" d="m0 0 2 2 2 18 1 6 14-1v3h-15l-2-7-2-15z" fill="#FADFDE"/>
<path transform="translate(1331,1216)" d="m0 0 5 2 5 5-3 7-4-4-3-7z" fill="#7AC830"/>
<path transform="translate(1447,1117)" d="m0 0h4l2 10v6l-4 4-1-14z" fill="#DFECF9"/>
<path transform="translate(1427,1155)" d="m0 0 8 3 2 3-5 8-2-1z" fill="#92D549"/>
<path transform="translate(70,973)" d="m0 0h1l3 19-1 4-2-3-1 5h-1v-18z" fill="#EDE6EA"/>
<path transform="translate(1395,1172)" d="m0 0 3 2 1 8-9 6-4 4-3-1 4-4h2l2-4 5-5v-3l-2-2z" fill="#92D549"/>
<path transform="translate(1293,991)" d="m0 0 8 6 5 6-2 1-12-7v-5z" fill="#76A0FE"/>
<path transform="translate(1413,1124)" d="m0 0 1 2-4 9-3 3-5-1 2-4z" fill="#E0E7F3"/>
<path transform="translate(1351,1060)" d="m0 0h1v6l-6 12-3 2 1-7z" fill="#76A0FE"/>
<path transform="translate(1402,1101)" d="m0 0 2 1v3l-8 6-4 2-3-3 12-8z" fill="#E4E5EF"/>
<path transform="translate(166,1347)" d="m0 0h23v1l-5 1h-17l-1 11h-1v-12z" fill="#F5CBCB"/>
<path transform="translate(1307,1125)" d="m0 0 3 1v2l4 2 1 7-9-6z" fill="#76A0FE"/>
<path transform="translate(104,1025)" d="m0 0h1l4 27-1 4-3-12-1-1z" fill="#F6DFE0"/>
<path transform="translate(1450,1278)" d="m0 0 2 1-3 4h-19l4-2z" fill="#F2D9DC"/>
<path transform="translate(1412,1197)" d="m0 0 2 1v2l-12 8-7 4 2-4 12-9z" fill="#E2E4EE"/>
<path transform="translate(1327,1154)" d="m0 0 3 1-2 5-4 8-4-2 4-7z" fill="#77C72D"/>
<path transform="translate(1330,1144)" d="m0 0 7 3-2 4-5 3-1-1v-8z" fill="#76A0FE"/>
<path transform="translate(1351,1055)" d="m0 0 1 2 6-1 5 1-4 2-7 7-1-5-1-3z" fill="#92D549"/>
<path transform="translate(167,852)" d="m0 0 4 1-16 12v-3l3-3h3l1-5z" fill="#F3E4E6"/>
<path transform="translate(1360,1123)" d="m0 0 5 1-2 5-3 2-4-5 1-2z" fill="#E2E6F1"/>
<path transform="translate(237,543)" d="m0 0 21 1v1l-21 1h-16v-2z" fill="#F9EFEF"/>
<path transform="translate(1329,1212)" d="m0 0 5 2 8 4-1 4-7-4-5-4z" fill="#CFDDF6"/>
<path transform="translate(98,1162)" d="m0 0h1l3 23-2-1-1-7h-2z" fill="#F1DFE2"/>
<path transform="translate(134,1228)" d="m0 0h1l2 13v7l-2-1-1 7h-1v-9l1-3z" fill="#F2E4E7"/>
<path transform="translate(120,1233)" d="m0 0h1l1 5 2-3v6l-1 5v7l-2-2-2-16z" fill="#EEE7EB"/>
<path transform="translate(102,1119)" d="m0 0 5 5v2h-2l1 8v9h-1l-3-20z" fill="#F7E2E2"/>
<path transform="translate(72,999)" d="m0 0h3l2 17-4-1v-10z" fill="#EEE1E5"/>
<path transform="translate(109,960)" d="m0 0h1v11h-1v14h-1l-2-12v-7l2 1z" fill="#F2E4E6"/>
<path transform="translate(1301,1160)" d="m0 0 6 2 2 1-1 7h-2z" fill="#77C72D"/>
<path transform="translate(179,841)" d="m0 0 5 1-4 4-9 6-2-2 2-2h4v-3l4-2z" fill="#F0E8EB"/>
<path transform="translate(1324,851)" d="m0 0 5 1 6 2 4 3v3l-4-2-3-1v-2l-5-1z" fill="#C0D8F6"/>
<path transform="translate(383,701)" d="m0 0v3 3l-3 5-1-3-6 1 5-5z" fill="#EDE4E9"/>
<path transform="translate(1450,1220)" d="m0 0 1 4v2l-10 4 1-3 3-2v-3z" fill="#E5E6EF"/>
<path transform="translate(150,1216)" d="m0 0h2v14l-4-1v-5l1-1z" fill="#E4EDF6"/>
<path transform="translate(258,764)" d="m0 0 2 1-12 11-4 1 1-3z" fill="#F1E5E8"/>
<path transform="translate(1497,1086)" d="m0 0 2 1-7 7-1 4h-2v3l-3-1 2-4z" fill="#E9E0E6"/>
<path transform="translate(300,765)" d="m0 0 1 2h-2l-1 5-4 2h-5l5-5z" fill="#EFE4E8"/>
<path transform="translate(344,731)" d="m0 0v3l-3 2 2 1v3l-6-1-1 2-4-1z" fill="#EFE6EA"/>
<path transform="translate(191,1347)" d="m0 0 2 2-3 3v-3l-3 1v7l-3-1 1-4-2-1 1-3z" fill="#EAE8EE"/>
<path transform="translate(1393,990)" d="m0 0 2 4-5 3-5-2-1-2 4 1v-2z" fill="#E3E8F1"/>
<path transform="translate(109,1152)" d="m0 0h2l-1 18h-1l-2-16z" fill="#EEE0E4"/>
<path transform="translate(1382,1026)" d="m0 0h2l4 6-1 2-2-1-1 2-4-7z" fill="#E4E5EE"/>
<path transform="translate(1292,1357)" d="m0 0 7 6 6 6-1 2-7-6-5-6z" fill="#FEB401"/>
<path transform="translate(1347,1161)" d="m0 0h1l1 5v7l-4-2 1-8z" fill="#E6E5EF"/>
<path transform="translate(95,964)" d="m0 0h1l2 17-1-2h-2l-1-14z" fill="#F2E0E2"/>
<path transform="translate(133,893)" d="m0 0h2v2h-2l-2 5-8 2 5-5z" fill="#F2E4E7"/>
<path transform="translate(331,741)" d="m0 0v3h-2l-2 4-3 3h-5l5-5z" fill="#F1E4E8"/>
<path transform="translate(487,588)" d="m0 0 4 2v3h-2l-1 2-1-3-6 2 5-5z" fill="#EDE3E8"/>
<path transform="translate(139,1262)" d="m0 0h1l2 16h-2l-1-6-2-1z" fill="#F1E0E3"/>
<path transform="translate(1262,1125)" d="m0 0 7 1-1 7-5-5z" fill="#5685FE"/>
<path transform="translate(473,599)" d="m0 0 1 2-5 5-5 3-3-1z" fill="#F4E1E3"/>
<path transform="translate(1218,1068)" d="m0 0 7 2 4 5-9-3z" fill="#5184FE"/>
<path transform="translate(1412,1050)" d="m0 0h2l-2 6-7 6-3-1 8-7z" fill="#E5E5EE"/>
<path transform="translate(403,668)" d="m0 0h7l-5 5-4 2-1-3z" fill="#E8E3EC"/>
<path transform="translate(1472,1238)" d="m0 0 2 1-5 4-3 3-6 1v-2l11-6z" fill="#E4E6EE"/>
<path transform="translate(1369,1197)" d="m0 0 2 2 1 6-4 4v-9z" fill="#E8E6EE"/>
<path transform="translate(1480,1159)" d="m0 0h2l-2 4h-2l-1 2-7-1 2-2z" fill="#E3EAF4"/>
<path transform="translate(1447,1117)" d="m0 0h4l2 11h-2v-4l-3-1z" fill="#E6E5ED"/>
<path transform="translate(279,748)" d="m0 0v3l-7 6-4 2-1-2z" fill="#EEE3E8"/>
<path transform="translate(414,644)" d="m0 0 2 1-2 6-4-1-4 3-2-1z" fill="#F2E0E2"/>
<path transform="translate(1350,1192)" d="m0 0 2 1v6l-2 4-4-2-2-4h3l3 3z" fill="#E5EEF8"/>
<path transform="translate(1437,1174)" d="m0 0 2 1-2 4h2v2l-7 5 2-6z" fill="#E5DEE6"/>
<path transform="translate(1467,1079)" d="m0 0 4 2 3 2 1 6h-2v-2h-3z" fill="#E1E2ED"/>
<path transform="translate(1514,1070)" d="m0 0h10l-3 2-11 3z" fill="#E2E9F3"/>
<path transform="translate(1362,1052)" d="m0 0 4 2 2-2 2 4-1 3-7-2z" fill="#DBDCEB"/>
<path transform="translate(176,860)" d="m0 0h2l-2 4-5 3-1 2-4-1z" fill="#F1E4E8"/>
<path transform="translate(111,1250)" d="m0 0h1l2 13v5l-3-4z" fill="#F4DBDB"/>
<path transform="translate(1347,1074)" d="m0 0 1 4-3 5-4-2 1-6 2 4z" fill="#92D549"/>
<path transform="translate(1463,1342)" d="m0 0 1 2h2l1-2 1 10h-2l-2-6-2 2z" fill="#E8EFF7"/>
<path transform="translate(1360,1085)" d="m0 0 3 1v2l-5 4-3 1 2-5z" fill="#E3E4ED"/>
<path transform="translate(1537,1081)" d="m0 0 2 1-5 4h-10l4-2z" fill="#E2E6EF"/>
<path transform="translate(1397,1081)" d="m0 0h2l-1 3-6 5-2 2 1-4 3-5z" fill="#EAE3E9"/>
<path transform="translate(110,878)" d="m0 0v3l-6 6-4-1z" fill="#EDE0E5"/>
<path transform="translate(441,656)" d="m0 0 2 1-5 5-6 4-2-1z" fill="#F6E0E1"/>
</svg>
